<svg xmlns="http://www.w3.org/2000/svg" xmlns:xlink="http://www.w3.org/1999/xlink" width="579.4" height="661.3" viewBox="0 0 579.4 661.3"><defs><linearGradient id="a" x2="444.78" y1="202.74" y2="202.74" gradientUnits="userSpaceOnUse"><stop offset="0" stop-color="#207364"/><stop offset="1" stop-color="#30bf97"/></linearGradient><linearGradient id="b" x1="134.66" x2="579.44" y1="458.59" y2="458.59" xlink:href="#a"/><linearGradient id="c" x1="234.3" x2="309.35" y1="105.86" y2="105.86" xlink:href="#a"/><linearGradient id="d" x1="287.12" x2="362.18" y1="557.75" y2="557.75" xlink:href="#a"/></defs><path fill="url(#a)" d="M324.2 377.9a259 259 0 0 0 33.5-38.2c73-102.6 61-247.9-56.3-311.2C263.9 8.3 221-1.2 178.4.1 113.4 1.5 50.7 33.3 8.3 82.2L0 91.8l8.2 8.8a301.3 301.3 0 0 0 35.7 33.9C92.6 173.4 147.5 187.3 209 182c63.7-4.6 125.6-27.8 165.8 38.7l1.2 2.1c-3.8 51.5-27 102.1-62.2 140a255.3 255.3 0 0 1-32.5 29.8l7.9 12.9c46.8-27.3 106.4-29.4 155.6-6.7-35.8-22.2-79.6-29-120.6-20.9zM156.6 160c-46.8-7.7-87.4-33.6-119-68 42.1-41.4 97.5-62.8 154.7-61.1Q160.6 51.5 130 73.5l-9.5 6.8 6.1 10a728.2 728.2 0 0 1 38.9 71.1zm188.9 19.3c-24-17.6-55.4-19.2-83.9-18.1-22.4.9-45.1 2.8-67.6 2.3a758.9 758.9 0 0 0-40-76.4c25.3-18 51.3-35.2 77.5-51.5 4.5 1 9.1 2.1 13.7 3.4C301 54.3 348.7 92.2 367 148a186.7 186.7 0 0 1 9.3 68.6c-7-14.6-17.5-27.9-30.8-37.3z"/><path fill="url(#b)" d="M571.3 560.7a300.9 300.9 0 0 0-35.8-33.8C486.9 488 432 474 370.5 479.4c-63.8 4.6-125.7 27.7-165.9-38.8a19.8 19.8 0 0 1-1.1-2c3.8-51.6 26.9-102.2 62.1-140.1a270.3 270.3 0 0 1 32.5-29.8l-7.9-12.8c-46.8 27.3-106.4 29.4-155.5 6.7 35.7 22.1 79.6 28.9 120.6 20.8a249.3 249.3 0 0 0-33.5 38.3c-73 102.6-61 247.8 56.2 311.1 37.5 20.2 80.5 29.7 123 28.4 65.1-1.3 127.7-33.2 170.1-82.1l8.3-9.5zm-237 61.7c-55.9-15.4-103.5-53.2-121.8-109.1a188.9 188.9 0 0 1-9.4-68.6c7 14.6 17.5 28 30.9 37.3 24 17.6 55.3 19.2 83.9 18.1 18.9-.8 38.1-2.2 57.2-2.3 9.1 18.8 21.5 35.1 33.6 50.9 5.7 7.6 11.3 14.8 16.4 22.3-26.5 18.8-53.8 36.9-81.3 53.8-3.2-.7-6.3-1.5-9.5-2.4zm47.7 7.9c22.8-14.7 45.4-30.1 67.5-46l9.5-6.8-6.2-9.9c-7.5-12-16-23.2-24.2-34s-17.5-22.9-24.5-34.8c6.3.6 12.5 1.4 18.8 2.5 46.7 7.7 87.3 33.7 119 68.1-43.4 42.5-100.8 64-159.9 60.9z"/><path fill="url(#c)" d="M309.3 105.9c0 31.2-35.9 49.8-61 29.8-18.6-15.1-18.7-44.6-.1-59.6 25.2-20.2 61.1-1.4 61.1 29.8zm0 0c.2-16.4-15.3-29.3-31.3-25-24.7 7-25.2 42.9 0 50.1 16 4.2 31.5-8.7 31.3-25.1z"/><path fill="url(#d)" d="M287.1 557.8c-.1 16.4 15.4 29.3 31.3 25.1 25.2-7.3 24.8-43.1 0-50.1-15.9-4.3-31.4 8.6-31.3 25zm0 0c.1-31.3 36-50 61.1-29.8 18.6 15 18.6 44.5 0 59.5-25.1 20.1-61 1.5-61.1-29.7z"/></svg>